<svg width="32" height="32" viewBox="0 0 48 48" fill="none" xmlns="http://www.w3.org/2000/svg">
  <path d="M2 12a6 6 0 0 1 6-6h12a6 6 0 0 1 6 6v24a6 6 0 0 1-6 6H8a6 6 0 0 1-6-6V12z" fill="#4A88E8"/>
  <path d="M22 12a6 6 0 0 1 6-6h12a6 6 0 0 1 6 6v24a6 6 0 0 1-6 6H28a6 6 0 0 1-6-6V12z" fill="#F8A93C"/>
  <circle cx="10" cy="11" r="1.8" fill="white" fill-opacity="0.6"/>
  <circle cx="38" cy="11" r="1.8" fill="white" fill-opacity="0.6"/>
  <rect x="8" y="14" width="12" height="14" rx="1.5" fill="white"/>
  <path d="M14 26l2 2 4-4" stroke="#4A88E8" stroke-width="1.2" stroke-linecap="round" stroke-linejoin="round" fill="none"/>
  <rect x="28" y="14" width="14" height="18" rx="2" fill="#7BCF7B"/>
  <text x="35" y="26" text-anchor="middle" dominant-baseline="middle" fill="white" font-size="10" font-weight="bold" font-family="system-ui,sans-serif">$</text>
  <circle cx="24" cy="5" r="2" fill="#7B68EE"/>
  <circle cx="25" cy="42" r="1.4" fill="#7B68EE"/>
</svg>
